<mxfile host="Electron" agent="Mozilla/5.0 (Windows NT 10.0; Win64; x64) AppleWebKit/537.36 (KHTML, like Gecko) draw.io/28.1.2 Chrome/138.0.7204.243 Electron/37.4.0 Safari/537.36" version="28.1.2">
  <diagram name="Page-1" id="e7e014a7-5840-1c2e-5031-d8a46d1fe8dd">
    <mxGraphModel dx="2395" dy="736" grid="1" gridSize="10" guides="1" tooltips="1" connect="1" arrows="1" fold="1" page="1" pageScale="1" pageWidth="1169" pageHeight="826" background="none" math="0" shadow="0">
      <root>
        <mxCell id="0" />
        <mxCell id="1" parent="0" />
        <mxCell id="2" value="Người dùng " style="swimlane;whiteSpace=wrap" parent="1" vertex="1">
          <mxGeometry x="-10" y="128" width="454.5" height="672" as="geometry" />
        </mxCell>
        <mxCell id="5" value="" style="ellipse;shape=startState;fillColor=#000000;strokeColor=#000000;" parent="2" vertex="1">
          <mxGeometry x="210" y="40" width="30" height="30" as="geometry" />
        </mxCell>
        <mxCell id="7" value="3.Chọn &quot;báo cáo&quot; ở giao diện chi tiết bài hát." style="rounded=1;" parent="2" vertex="1">
          <mxGeometry x="120" y="252" width="260" height="50" as="geometry" />
        </mxCell>
        <mxCell id="8" value="5.Người đọc điền đầy đủ thông tin vào form &#xa;báo cáo." style="rounded=1;align=left;" parent="2" vertex="1">
          <mxGeometry x="125" y="401" width="250" height="50" as="geometry" />
        </mxCell>
        <mxCell id="uvt4-mb7bjSLwskbyc6D-63" style="edgeStyle=orthogonalEdgeStyle;rounded=0;orthogonalLoop=1;jettySize=auto;html=1;exitX=0;exitY=0.5;exitDx=0;exitDy=0;entryX=1;entryY=0.5;entryDx=0;entryDy=0;" parent="2" source="uvt4-mb7bjSLwskbyc6D-57" target="uvt4-mb7bjSLwskbyc6D-64" edge="1">
          <mxGeometry relative="1" as="geometry">
            <mxPoint x="170" y="521" as="targetPoint" />
          </mxGeometry>
        </mxCell>
        <mxCell id="uvt4-mb7bjSLwskbyc6D-57" value="" style="rhombus;whiteSpace=wrap;html=1;" parent="2" vertex="1">
          <mxGeometry x="230" y="502" width="80" height="38" as="geometry" />
        </mxCell>
        <mxCell id="ofE1IKZhP1BckV__TYuj-36" style="edgeStyle=orthogonalEdgeStyle;rounded=0;orthogonalLoop=1;jettySize=auto;html=1;exitX=0.25;exitY=0;exitDx=0;exitDy=0;entryX=0;entryY=0.5;entryDx=0;entryDy=0;" parent="2" source="uvt4-mb7bjSLwskbyc6D-64" target="ofE1IKZhP1BckV__TYuj-32" edge="1">
          <mxGeometry relative="1" as="geometry">
            <mxPoint x="60" y="312" as="targetPoint" />
          </mxGeometry>
        </mxCell>
        <mxCell id="uvt4-mb7bjSLwskbyc6D-64" value="6.1 Chọn huỷ trên form báo cáo" style="rounded=1;" parent="2" vertex="1">
          <mxGeometry x="15" y="502" width="180" height="38" as="geometry" />
        </mxCell>
        <mxCell id="ofE1IKZhP1BckV__TYuj-29" value="" style="edgeStyle=orthogonalEdgeStyle;rounded=0;orthogonalLoop=1;jettySize=auto;html=1;entryX=0.5;entryY=0;entryDx=0;entryDy=0;exitX=0.581;exitY=0.956;exitDx=0;exitDy=0;exitPerimeter=0;" parent="2" source="8" target="uvt4-mb7bjSLwskbyc6D-57" edge="1">
          <mxGeometry relative="1" as="geometry">
            <mxPoint x="270" y="402" as="sourcePoint" />
            <mxPoint x="260" y="510" as="targetPoint" />
          </mxGeometry>
        </mxCell>
        <mxCell id="ofE1IKZhP1BckV__TYuj-26" value="6.Xác nhận gửi báo cáo" style="text;html=1;align=center;verticalAlign=middle;whiteSpace=wrap;rounded=0;" parent="2" vertex="1">
          <mxGeometry x="195" y="550" width="150" height="30" as="geometry" />
        </mxCell>
        <mxCell id="ofE1IKZhP1BckV__TYuj-32" value="1.Chọn bài hát truyện bất kì trên trang chủ." style="rounded=1;" parent="2" vertex="1">
          <mxGeometry x="120" y="152" width="260" height="50" as="geometry" />
        </mxCell>
        <mxCell id="ofE1IKZhP1BckV__TYuj-33" style="edgeStyle=orthogonalEdgeStyle;rounded=0;orthogonalLoop=1;jettySize=auto;html=1;exitX=0.5;exitY=1;exitDx=0;exitDy=0;entryX=0.405;entryY=-0.012;entryDx=0;entryDy=0;entryPerimeter=0;" parent="2" source="5" target="ofE1IKZhP1BckV__TYuj-32" edge="1">
          <mxGeometry relative="1" as="geometry" />
        </mxCell>
        <mxCell id="3" value="Hệ thống" style="swimlane;whiteSpace=wrap" parent="1" vertex="1">
          <mxGeometry x="445" y="128" width="315" height="672" as="geometry" />
        </mxCell>
        <mxCell id="15" value="4.Hệ thống hiện form báo cáo." style="rounded=1;align=center;" parent="3" vertex="1">
          <mxGeometry x="13" y="322" width="252.5" height="50" as="geometry" />
        </mxCell>
        <mxCell id="uvt4-mb7bjSLwskbyc6D-67" style="edgeStyle=orthogonalEdgeStyle;rounded=0;orthogonalLoop=1;jettySize=auto;html=1;exitX=0.5;exitY=1;exitDx=0;exitDy=0;entryX=0.5;entryY=0;entryDx=0;entryDy=0;" parent="3" source="uvt4-mb7bjSLwskbyc6D-61" target="uvt4-mb7bjSLwskbyc6D-66" edge="1">
          <mxGeometry relative="1" as="geometry" />
        </mxCell>
        <mxCell id="uvt4-mb7bjSLwskbyc6D-61" value="7.Hệ thống tiếp nhận báo cáo người dùng &#xa;và đưa vào hàng chờ xử lý." style="rounded=1;" parent="3" vertex="1">
          <mxGeometry x="23.75" y="502" width="267.5" height="38" as="geometry" />
        </mxCell>
        <mxCell id="uvt4-mb7bjSLwskbyc6D-66" value="" style="ellipse;shape=startState;fillColor=#000000;strokeColor=#000000;" parent="3" vertex="1">
          <mxGeometry x="142.5" y="622" width="30" height="30" as="geometry" />
        </mxCell>
        <mxCell id="ofE1IKZhP1BckV__TYuj-31" value="2.Mở giao diện chi tiết bài hát" style="rounded=1;" parent="3" vertex="1">
          <mxGeometry x="13" y="152" width="260" height="50" as="geometry" />
        </mxCell>
        <mxCell id="ofE1IKZhP1BckV__TYuj-34" style="edgeStyle=orthogonalEdgeStyle;rounded=0;orthogonalLoop=1;jettySize=auto;html=1;exitX=1;exitY=0.5;exitDx=0;exitDy=0;entryX=0;entryY=0.5;entryDx=0;entryDy=0;" parent="1" source="ofE1IKZhP1BckV__TYuj-32" target="ofE1IKZhP1BckV__TYuj-31" edge="1">
          <mxGeometry relative="1" as="geometry" />
        </mxCell>
        <mxCell id="ofE1IKZhP1BckV__TYuj-35" style="edgeStyle=orthogonalEdgeStyle;rounded=0;orthogonalLoop=1;jettySize=auto;html=1;exitX=0.5;exitY=1;exitDx=0;exitDy=0;entryX=1;entryY=0.5;entryDx=0;entryDy=0;" parent="1" source="ofE1IKZhP1BckV__TYuj-31" target="7" edge="1">
          <mxGeometry relative="1" as="geometry" />
        </mxCell>
        <mxCell id="ofE1IKZhP1BckV__TYuj-37" style="edgeStyle=orthogonalEdgeStyle;rounded=0;orthogonalLoop=1;jettySize=auto;html=1;exitX=0.5;exitY=1;exitDx=0;exitDy=0;entryX=0;entryY=0.5;entryDx=0;entryDy=0;" parent="1" source="7" target="15" edge="1">
          <mxGeometry relative="1" as="geometry" />
        </mxCell>
        <mxCell id="ofE1IKZhP1BckV__TYuj-38" style="edgeStyle=orthogonalEdgeStyle;rounded=0;orthogonalLoop=1;jettySize=auto;html=1;exitX=0.5;exitY=1;exitDx=0;exitDy=0;entryX=1;entryY=0.5;entryDx=0;entryDy=0;" parent="1" source="15" target="8" edge="1">
          <mxGeometry relative="1" as="geometry" />
        </mxCell>
        <mxCell id="ofE1IKZhP1BckV__TYuj-39" style="edgeStyle=orthogonalEdgeStyle;rounded=0;orthogonalLoop=1;jettySize=auto;html=1;exitX=1;exitY=0.5;exitDx=0;exitDy=0;entryX=0;entryY=0.5;entryDx=0;entryDy=0;" parent="1" source="uvt4-mb7bjSLwskbyc6D-57" target="uvt4-mb7bjSLwskbyc6D-61" edge="1">
          <mxGeometry relative="1" as="geometry" />
        </mxCell>
      </root>
    </mxGraphModel>
  </diagram>
</mxfile>
